<mxfile host="Electron" modified="2024-07-25T09:00:30.458Z" agent="Mozilla/5.0 (Windows NT 10.0; Win64; x64) AppleWebKit/537.36 (KHTML, like Gecko) draw.io/23.1.5 Chrome/120.0.6099.109 Electron/28.1.0 Safari/537.36" etag="gZGFxejTSZ4eChOuccGe" version="23.1.5" type="device">
  <diagram name="Seite-1" id="OcvlzPWooWUKC8i2bsL_">
    <mxGraphModel dx="1150" dy="711" grid="1" gridSize="10" guides="1" tooltips="1" connect="1" arrows="1" fold="1" page="1" pageScale="1" pageWidth="827" pageHeight="1169" math="0" shadow="0">
      <root>
        <mxCell id="0" />
        <mxCell id="1" parent="0" />
        <mxCell id="IVsWJX17wTfRQNtMENxd-8" style="edgeStyle=orthogonalEdgeStyle;rounded=0;orthogonalLoop=1;jettySize=auto;html=1;" parent="1" source="IVsWJX17wTfRQNtMENxd-4" target="IVsWJX17wTfRQNtMENxd-70" edge="1">
          <mxGeometry relative="1" as="geometry" />
        </mxCell>
        <mxCell id="IVsWJX17wTfRQNtMENxd-9" value="connected" style="edgeLabel;html=1;align=center;verticalAlign=middle;resizable=0;points=[];" parent="IVsWJX17wTfRQNtMENxd-8" vertex="1" connectable="0">
          <mxGeometry x="-0.4412" relative="1" as="geometry">
            <mxPoint y="4" as="offset" />
          </mxGeometry>
        </mxCell>
        <mxCell id="IVsWJX17wTfRQNtMENxd-4" value="" style="shape=image;aspect=fixed;image=data:image/png,iVBORw0KGgoAAAANSUhEUgAAAbYAAACtCAYAAADcb1qcAAAACXBIWXMAAAsTAAALEwEAmpwYAAAFu2lUWHRYTUw6Y29tLmFkb2JlLnhtcAAAAAAAPD94cGFja2V0IGJlZ2luPSLvu78iIGlkPSJXNU0wTXBDZWhpSHpyZVN6TlRjemtjOWQiPz4gPHg6eG1wbWV0YSB4bWxuczp4PSJhZG9iZTpuczptZXRhLyIgeDp4bXB0az0iQWRvYmUgWE1QIENvcmUgOS4xLWMwMDIgNzkuYTZhNjM5NiwgMjAyNC8wMy8xMi0wNzo0ODoyMyAgICAgICAgIj4gPHJkZjpSREYgeG1sbnM6cmRmPSJodHRwOi8vd3d3LnczLm9yZy8xOTk5LzAyLzIyLXJkZi1zeW50YXgtbnMjIj4gPHJkZjpEZXNjcmlwdGlvbiByZGY6YWJvdXQ9IiIgeG1sbnM6eG1wPSJodHRwOi8vbnMuYWRvYmUuY29tL3hhcC8xLjAvIiB4bWxuczpkYz0iaHR0cDovL3B1cmwub3JnL2RjL2VsZW1lbnRzLzEuMS8iIHhtbG5zOnBob3Rvc2hvcD0iaHR0cDovL25zLmFkb2JlLmNvbS9waG90b3Nob3AvMS4wLyIgeG1sbnM6eG1wTU09Imh0dHA6Ly9ucy5hZG9iZS5jb20veGFwLzEuMC9tbS8iIHhtbG5zOnN0RXZ0PSJodHRwOi8vbnMuYWRvYmUuY29tL3hhcC8xLjAvc1R5cGUvUmVzb3VyY2VFdmVudCMiIHhtcDpDcmVhdG9yVG9vbD0iQWRvYmUgUGhvdG9zaG9wIDI1LjkgKFdpbmRvd3MpIiB4bXA6Q3JlYXRlRGF0ZT0iMjAyNC0wNy0yNFQxMDo1NDoxNCswMjowMCIgeG1wOk1vZGlmeURhdGU9IjIwMjQtMDctMjRUMTA6NTY6NDYrMDI6MDAiIHhtcDpNZXRhZGF0YURhdGU9IjIwMjQtMDctMjRUMTA6NTY6NDYrMDI6MDAiIGRjOmZvcm1hdD0iaW1hZ2UvcG5nIiBwaG90b3Nob3A6Q29sb3JNb2RlPSIzIiB4bXBNTTpJbnN0YW5jZUlEPSJ4bXAuaWlkOmNlOWMzNTk3LWFlMWItYTY0Ni1iODBhLWJlOThmODc2ZmZjYyIgeG1wTU06RG9jdW1lbnRJRD0ieG1wLmRpZDpmMzI0NDkxYS0wMGU1LWFkNDktOGI4NC1lZGE3YzY1NDY3NzgiIHhtcE1NOk9yaWdpbmFsRG9jdW1lbnRJRD0ieG1wLmRpZDpmMzI0NDkxYS0wMGU1LWFkNDktOGI4NC1lZGE3YzY1NDY3NzgiPiA8eG1wTU06SGlzdG9yeT4gPHJkZjpTZXE+IDxyZGY6bGkgc3RFdnQ6YWN0aW9uPSJjcmVhdGVkIiBzdEV2dDppbnN0YW5jZUlEPSJ4bXAuaWlkOmYzMjQ0OTFhLTAwZTUtYWQ0OS04Yjg0LWVkYTdjNjU0Njc3OCIgc3RFdnQ6d2hlbj0iMjAyNC0wNy0yNFQxMDo1NDoxNCswMjowMCIgc3RFdnQ6c29mdHdhcmVBZ2VudD0iQWRvYmUgUGhvdG9zaG9wIDI1LjkgKFdpbmRvd3MpIi8+IDxyZGY6bGkgc3RFdnQ6YWN0aW9uPSJzYXZlZCIgc3RFdnQ6aW5zdGFuY2VJRD0ieG1wLmlpZDpjZTljMzU5Ny1hZTFiLWE2NDYtYjgwYS1iZTk4Zjg3NmZmY2MiIHN0RXZ0OndoZW49IjIwMjQtMDctMjRUMTA6NTY6NDYrMDI6MDAiIHN0RXZ0OnNvZnR3YXJlQWdlbnQ9IkFkb2JlIFBob3Rvc2hvcCAyNS45IChXaW5kb3dzKSIgc3RFdnQ6Y2hhbmdlZD0iLyIvPiA8L3JkZjpTZXE+IDwveG1wTU06SGlzdG9yeT4gPC9yZGY6RGVzY3JpcHRpb24+IDwvcmRmOlJERj4gPC94OnhtcG1ldGE+IDw/eHBhY2tldCBlbmQ9InIiPz4YhRsUAABDG0lEQVR4nO29V3CbZ5b3+UfOJEgwgKRIMAeRFKmcJSu05ZYt2+3c3dUz4675em6++mr83fRe7Fa5dm/mq9ranoudranpmuTuKY+7LU9bUtuSZUm2FagsUQxiAjMIgghEji+AvbCe1yAJUCQABlHnV4UiCbwJIPn83/M85/yPIB6PgyAIgiA2CuK1OnFvb2+F3+8v9/v9FYFAoMLv95dHIhF1NBpVR6NRaTQaVZPoEgRBrD+EQmFYJBKFRSKRVywWe6VSqUOpVE4olcrxJ4+J+vp6x1pdn2C1xKOrq2uzzWbb7/F4avx+f4Xf76/gOG7/qpycIAiCWDUUCsUFJnA5OTm9RUVFV+rq6lZN6FZU2Lq7u2vNZvMpp9PZFgwG9ZFI5EQsFkM8HgdFYwRBEBsTgUDAP0QiEWQy2WmFQjGu1+sv7Nmz58KKn38lBMZoNKp7e3v/d7vdvovjuCOxWCzpdvF4HPOFbr7okQASBEGsHwQCwZzv2QMAhELhnJ/n7ycSia7LZDJHdXX1b/fu3Xt2xa4x28Lx1VdffTA9PX0iHA6fWCwyi8ViCAaDCAQCCAaDsNlssFgssNlscDqd8Pl8CAQCCIfDWb0+giAIIj1YBKZWq6FWq6HValFQUIDi4mLodDrI5XIoFArIZDIIhcKk+z953FGpVENVVVX/vnv37qxHcFkTths3bpyamJj4qdfrrY3FYjvnHzcWiyEajcLv98PhcMBms2FychImkwnT09Pwer2IxWJzIjiasiQIglhfJEZpAoEAQqEQIpEIGo0GJSUlKCsrw6ZNm6DT6aDVaqFUKiEWi/l9E48jEomuFxQUXKusrPxoy5YtvVm7xkyF4/79+ztHRkb+m8Ph2BWPx9tSbWe32zE6OorBwUGMjY1hamoKoVCIhIsgCGIDIRAIoFAoUFpaisrKStTW1qKmpgYajSbpFCUAiMXi66WlpWfr6+t/U11dnfE0XUbC9s033/zl5OTkm8Fg8NT8dbR4PA6O4+ByudDZ2Yn+/n6YzWa4XC5wHMdHZgRBEMTGgkVyEokEWq0Wer0eTU1NaG9vh1qthkgkSha9Qa1W/7vBYPg40+nJtIXt/Pnzv56amjoVjUb3z0/2iMVi4DgODx8+REdHByYmJhAIBBCNRjO5VoIgCOIZRCAQICcnByUlJTh48CBaW1shFov5ZJNEZDLZlbKystPHjx//h7TPl46wnTlz5u+sVuvR+WtpbI1sYmIC58+fR19f35zojCI0giCI5xOhUMhHcc3NzfjRj36E0tJSSKXSOds9ifbuFBQUXHvttdf+ZzrnWrawnT59+p9mZ2fb4/H4zsQU/Wg0Co/Hg66uLly6dAl2ux0cx5GYEQRBEDwCgQBisRglJSU4duwYGhsbk05PikSiOxqNpvedd975q2WfYznC89FHH50PhUL6+UkiHMfBZDLhxo0buHv3Lvx+P0VoBEEQRFKYgOXk5KC9vR2HDh1CaWnpghIBoVB4JycnZ9nitmRh+/TTT//J6XS2x2Kxney5eDyOSCSCwcFBXLp0CcPDwwgGg+tG0BJTUUUiEcRiMaRSKSQSCcRiMf+VPYRCITiOm/OIRCJzHtFolH+QeBMEQaSPUCiEWCxGY2Mjjh49irq6ujmRG5uWLCkpOXvy5Mn/a6nHXZKwnT179u8sFsvR+aIWjUbx6NEjnD9/HhMTE0jlMLIaJFa7s69yuRx6vR7V1dWorKyETqeDWCyGSCRCNBpFKBRCKBRCMBhEKBRCLBaDRCKBXC6HTCaDTCbj5385jkMwGMTk5CSGh4cxOjoKl8vFv+f57ikEQRDE02EBiMFgwMmTJ9HU1LRgWlIqlV4pKys7+6Mf/eg3Szrm0wbhixcvfjA5OflmJBKZY1gcCoXQ2dmJL774AlarlY9gVhsmaBKJBBKJBGVlZaiqqkJVVRUMBgPkcjmmpqZgNBoxMTEBr9cLj8eDSCTCJ7skJrewDznxoVQqoVarkZeXh5qaGlRWVkKtVsNsNmN4eBgjIyMYHx+H1+vlozoSN4IgiKWRuO528uRJbNmyZU7G5JPXr9fU1PzDoUOHPn7q8RYbgG/fvn3k0aNH/ysxUYQ5iHR1deHcuXOwWCzgOC5Lb29pJE4xSiQSFBUVYevWrWhra4Ner4fL5cLw8DAGBgbQ29sLj8cDjuMQjUbTytBMFDs2nVleXo7GxkbU1NSgvLwcoVAIPT09uH37NsbHxxEOh/lzAhTFEQRBLAYLUioqKvD666+jpqYGEolkQeS2devWD9ra2joXPVaqAddoNKpv3779bx6P583E58PhMAYHB/HnP/8ZIyMjq77OJBAIIJfLkZ+fj/LycrS2tqKyshJWqxVdXV0YHR3F1NQUIpFIUmPlTK51vuEn+16tVqOyshINDQ2or6+H0+mE0WjE48ePYbVa4ff7qYaPIAhiCYjFYhgMBrzxxhuoqqpaELlpNJqP33vvvZ8tdoyUwvb555//Pzab7YPEiIPVqH3++ecYHBxEJBLJ8ltKcZFPIqbc3FyUlJSgpqYGBQUFkMvlsFqtMBqNMBqNfBH4arqaJPqlicVi6PV61NTUoL6+HpFIBHa7HRMTEzCZTLDZbFQCQRAEsQhsPG1ubsZPfvITFBcXQyQS8a+LRKI7paWlZ3/84x+nTCZJKmy3b98+0tXV9b+i0SifLBKLxRAOh3H69Glcv3591SIQtn5WVlaG/fv3Iy8vD36/H48fP8bY2BisVuu66wDAquwrKipQU1OD4uJiSCQSdHR0oLOzk9bgCIIgnoJEIsH27dvx7rvvQqFQzInaRCLR9ba2tl9v3779erJ9RR9++OGCJ7/77rv/OxwOH59fgH316lVcu3YNoVBo5d7NE9hiokqlwsGDB7F//37YbDbcuHED9+7dw9jYGDwez7qd4mPR2vj4OMbHxwEAu3btgsFggM/ng9/vX9MsUoIgiPWOw+GAQqFAWVkZ3yEAAOLxeEUoFIpu3rw5aU+3BcL21VdffWC32w/E4/Ey9lw0GsXo6Cg++eQT+Hy+FY02mBmmWCxGeXk53nrrLdTU1ODq1au4efMmZmZm+CnHpV5H4nTh/KxHkUi0IAuSPRK3TdU8LxVs6jYcDsPr9cJkMsFoNKK5uRlHjx6Fx+OBw+EgcSMIgkgCG0PtdjvKyspQUFAA4IdyrkgkEnQ6naKqqqr78/cVJ/5gNBrVDodj53wPyEAggEuXLiEYDK74QCyRSKDRaLBnzx4cP34cN2/exCeffAKn08mn5i8HFvmxh0Qi4dP3WUM8VtsG/NCVIBwOIxAIwO/3w+PxIBwOIxqN8oXby4kU4/E4wuEwZmZm8PHHH2P79u144YUX0NraigsXLsBisVALH4IgiHnEYjHYbDZ0dHSgoqJizpRkLBbbb7PZhgD8dv5+c9bYrly58t9GR0f/iSWFMMX87rvv8OWXX8Lj8ayYsAmFQsjlctTX12P37t2QSqW4c+cOHj58yNeGPQ0WVYnFYshkMigUCqhUKuTl5UGr1SInJwcqlYpPIZ1f0M2Yn00Zj8fh9/vhdrvhcrkwOzsLt9vNdwBnGZhL+WxYkkl5eTmOHz8OhUKBzs5OPHr0iG/pQxAEQfxAYWEhXn75ZWzbtg0ymQzAD2ttW7Zs+fWOHTvmrLXxEdvIyIjUYrEcSRxY4/E47HY7Hj16BLfbvaIRhVgsxu7du7F7925MTk7i7NmzmJ6eXpaQSqVS5OfnQ6fTobCwEPn5+dBqtUlbIywXmUyGvLy8OULncDhgt9thtVrhcDjg8Xie+hmx6cmRkRF8/PHH2Lp1Kw4fPozKykp8/fXXmJiYyOg6CYIgNhpOpxMPHjxAZWUlSkpKAPCza/unp6dPAEgubDMzM0d8Pt9PE18Mh8Po7u6GyWRaMVFjdWnHjh3Dtm3bcPv2bdy5c2eOXdVi+z5pTge9Xo/S0lLk5uZCrVZDKpUuqDvL1vUKBAKoVCooFAqUlJTA5/PB7XbDarViampqTmeDVJ9bLBaD1+vFzZs3YbVa8eKLL+K1117DxYsXMTIysu4yPQmCINaKaDTKWxkWFBRALBbz4/rs7Oyu/v5+fUNDwzTbnk8eefjw4V+63e7DiQebmZnB1atXMTU1tSJTkKw3zzvvvIOdO3fizJkzuH///lNFjQmaQqFAbW0ttmzZgurqahQXF/NTjekkfCyHRPcTuVyOnJwcFBQUQK/XQ6PRIBgMIhgMLnp+lm06OzuL6elpVFdXY+/evRgfH1/xCJkgCOJZgeUpSKVS1NTUQCaT8WNrPB6vlUgk3ZWVlbwbiejDDz/EwMBA/uDg4P/gOK6WHSQej2NkZATffPMNwuFw1gdZgUCAvLw8/PKXv0RpaSn+/u//HuPj409NomBiWF1djT179qCmpgY5OTl8hLZWMKFjrihVVVVQqVS8f+RiQh2Px+HxeDAyMoLy8nKcOnUKRqMRbrebsiYJgiCe4HK50NjYiLy8vDktbjiOC7S0tJxmP4s+/PBD9Pf3H5+Zmfk/Ep3q/X4/bt68iYGBgayLGnPoeOONN6BUKvHP//zPmJ2dTenKwURDJpOhqKgIO3bsQHNzM9Rqdcr24msBixBZuYJOp4Ner0csFkMoFFo0AYatvT1+/Bi5ubl49913MT09Dbvdvm5r9QiCIFYbqVSKxsbGOW4kHMcFFQrFhcLCQhcACAHgSZ81fqN4PA63243BwcEVmQ7Lzc3FqVOnIBAI8Pvf/x42m23RujShUAiNRoPNmzfjhRdeQGVlJT/duF5hAqfT6bB7927s2bMHxcXFc4oM58NxHLxeL/7zP/8TX3zxBf76r/8aO3fuXBeiTRAEsdZwHIfe3t4FfT/j8fhOs9l8gv0sBgCHwzGnbi0Wi2FychJWqzWrF8WiruPHjyMnJwd//OMfMTMzk9LbkaXul5WVob6+HsXFxZDL5c/MQM+uUyKRoKKiAhqNBkajESMjI/D5fEkjMda89csvv4RIJMLLL78Mp9OJvr6+5z6hZH6hfeIaamJpxvwHQRAbg3g8DofDgZGRETQ3N/OBQjweh9VqPYInNW1iAAgGg/p56of+/v6s1lSxCOall15CY2Mjfve732FycjLlNBsbwOrq6tDU1ASdTpe1a1lt2HsvKCiAWq2GVqtFT08P7HZ70oE3FoshEong/PnzkMlkOHXqFHw+H4aHh5+LgTpZfSGzV1Or1QseIpEIPp8PHo8HXq93ziPxZoAawRLEsw2rF+7p6eGnI9k4EQgE9ENDQ+ra2lqvuKura3OyHY1GY1bXdmQyGfbu3Yt9+/bhH//xHzE+Pr6oqMnlcrS2tqKurg4KhSJr17HWSKVSVFVVQS6X4+HDh/w07Hzi8TiCwSC++eYb6HQ6HDt2DD6fj+8QsFERiUR8n73c3FzU1dWhoaEBJSUliEQiC4SLJdgolUqUlZUtED273Y7+/n4MDAzAarXya51kRE0QzybxeBx9fX2IRCKQSqX887FY7IjD4dgJ4IrY6XS2AdiZuBMrPM5GRh5LiW9vb8err76K3//+93yklmxgEQqFUCgU2LZtG6qrq9c82zHbCIVCSKVSlJWVQaFQ4Pr167xn5PyoORqNwmq14quvvsI777yDo0eP4uzZs/D5fBsmW3J+wo1er0dTUxM2b96M2tpaTE5O4t69ezh37hy8Xu+cjueJFmvJOp8LBAK0tLRg586dOHnyJOx2O7q7u9HX14fh4WHeHo2mLAni2SEej8Pn88FsNqO2tpZ/LhaLwefz1QK4Ina5XE2JO7Gea9n6R5dKpWhpacGxY8dw+fJl9PT0pCwfEAgEyM3NRVtbGwwGw4YTtUTY1OShQ4fQ0dEBi8WSNHLjOA5DQ0M4d+4c3n77bdjtdly9ehWBQGBDDMasxU9VVRUOHTqE0tJSzMzMoLe3F3/84x9hMpkAYIHoz3+OHWv+97du3cKtW7eQl5eHpqYmNDc3Y8+ePXA4HLh58yZvZbZavQUJgsgcjuNgNptRU1MzZ53d5/OVA4DY7XZvThwoYrEYpqamsnJyoVCIwsJCHDhwAAMDA7h27dqcztbzt83JyUFzc/OqidpSvCJX8twCgQBarRZ79+7F7du3YTabF0wzssitt7cXn3/+OV566SXYbDY8fPhwVRuqZhMWXanVamzatAlbt25FcXExHA4Hrly5gtHRUYRCobTMplNht9vR0dGBu3fvQq/Xo729Hdu3b0dVVRW6u7sxPDyM2dnZtIy2CYJYPdiYODMzs+A1v99fAQBijuPUiS+wHTIdMAUCAWQyGVpbW8FxHG7cuIHZ2dmU20skEjQ3N/NV5SsNa2Aqk8kglUp5Y2SO4xCJRBAOhxEKhVZcPEQiEfLy8rBt2zbcv38/pVdkKBTC3bt3UVZWhldeeQUmkykrv6e1QCQSoby8HAcPHkRpaSmcTicuXbqEwcFB+P3+FXlPTLAikQhGRkYwOTmJyspK7NixA4cPH8aOHTtw7do1PH78OOXNF0EQaw8TNofDseB5pmfieDwunf/i/B3SQSQSoa6uDu3t7bh06RJsNlvS7VhKf2trK6qrqyGRSDI+9/zjs3U+hUKBnJwcqNVqaDQaSCQSPlmBFfuxAZBFC6xtDXtwHJf1u3qBQACdToeWlhaEw+FFE0q+++47vpv4F198gUAgkLXrWGnY76C1tRU7d+6E2+3G2bNnYbFY+M4GqyEorKRieHgYFosFhYWF2LZtG1588UWUl5fjxo0bcLvdGzpJhyCeZZhbUzQanVPPzPRsQbUwK87OZIBhrVmOHj2KiYkJPHz4MGkNFhOdhoYGNDU1Za1GLbHGSa1Wo6ioCMXFxVAoFHxftsQ00cVgGXSsR5vD4cD09PQcp5RsRLcscaKlpQX37t2Dy+VacNx4PI7Z2VmcO3cO77zzDurr69HV1bXukx8S7cYOHjyI7du3486dO7h79y7fZ2+1r5/13XO5XPB4PJienkZtbS1OnDiBoqIifPHFF7Barc/sdC9BbGTYzWkoFJpjiMwQz/+nZdNvmSCVSnHo0CFUVlbi7NmzKZNFRCIRSktL0dLSMsfUMhNYhl1ubi4MBgP0ev2cN55qXS0VrMO2RCKBXC6HRqNBRUUFXC4XhoeHYbVas+alKRaLUVlZCZfLhe7u7gW+mWwNdGZmBkajEfv27YPJZMLs7Oy6tt0SCATQaDQ4efIktmzZgj/84Q/o6uriM2PXWjiYhVx3dzdsNhvee+89vPvuuzhz5gwmJycpsYQg1iHRaBThcBgqlYp/jo0lCzypMp0OEgqFqKiowAsvvMAPDItlQDY3N0OpVGZsj8UELScnB7W1tWhvb8emTZsglUp5cUrX8T/R8YJNW+bl5aG9vR2tra0oLCzko81MxJm9h/r6euj1+qSfSTweRygUwq1btxAIBNDc3DynlmO9IZFIUFpaip/+9Keorq7GRx99hJ6eHt4Yeq1FDfjhhoHjOFgsFnzyySfw+/148803UVVVtaGzcwniWYXNuiRNRpz/RCbRGpv6O3r0KGZmZnDr1q2UU5CsULm4uHiOmWW6SKVS6PV6tLa2oqGhATk5OUueblwuTOQkEgk2bdqE7du3o7q6Gmq1OivnUyqV2Lp1K3JycpIeLxqNwmw2Y2BgAO3t7SguLl63A29ZWRl+9rOfQSAQ4F//9V/R19eHUCi01peVkkgkgsnJSXz22WeYmJjA+++/j6ampnX7+RLE80xKf+FsnkQsFqO+vh4FBQW4ePFiyhY0IpEIJSUlqKqq4rMR00UkEkGr1aKxsRHNzc3Q6XSrOgix7M/Kykq0traipKQk4/fEWvq0tLQkjcbYnUpfXx+cTidqa2vXXVQhEomQn5+PAwcOwGaz4ZNPPoHFYlkXEdrTiMfjcDqdOHfuHDo6OnDq1CkYDIasJzYRBJEZqyJsSqUSbW1tmJiYwPj4eNLoj9ll1dXVpYxIlgKLmvLy8tDY2IiKigqoVKo1aWHDxK24uBhNTU0wGAwZXQebkjQYDCgvL095HI/Hg+7ubtTV1UEul6+bbgfsd7xv3z7k5ubiypUrq5r1mA2i0SgCgQAuX76M/v5+vPrqqygsLFzR5rUEQWSHrI6ExcXF0Ov1ePToUdJ6JCZGpaWl2LRpU0YDMYv6tmzZgqKioqxMZ2YDlUqFhoYGtLa2ZrT2xcShsbEx5RpkNBrF48eP+XrB9TDgsgzP2tpabN26FTdu3FjU7Ho9E4/HEQgEcOXKFcRiMZw4cQK5ubnr5gaCIIjkZOU/NLG9jN/v5+2hkt2dS6VSNDQ0JE3RXCrMjqq1tRUajWbF1tLSIXHtrampKaMpQqFQiNzcXFRUVCQdTGOxGAKBALq7u7F79+6MPtNswG5cdDodDhw4gGvXrqG3t/eZLXhmhaAulwt//vOfIZfLsXPnzmeqdRJBPI9kRdiEQiHy8/NRV1eH0dFRuFyupNsJBALU1taioKAg7XMxb8HNmzevq+m3RJjQl5SU8EbO6SKXy1FZWQmNRpNym97eXhQXF8NgMKxp5Moswt555x1MTk7iu+++2xA95DiOw+joKK5cuYK6ujrU1tauq5spgiDmkhVVEIlEqKiogFKpRG9vb9KsN4FAAKVSibq6urQHhcRO2tnIQGRp3tFoFJFIBJFIhHccyUbRtVQqRXl5+YJauuXAIiA23ZrsGMwYee/evYt26F5pJBIJDh48CI7jcO3atXWTzp8p7O9keHgYnZ2dOHjwIPLy8kjYCGKdkhVhYz6Pdrs9ZZ81oVCIsrIy5OTkpB1lyWQy1NTUID8/P+3IJLHdCcdxsFqtGBwcxKNHj/Dw4UP09PRgfHwcHo9nTouUdAZoZvRrMBig0WjSGgjZDYFer4dcLk/6fiKRCG7dugW9Xo+ysrJlnyMbCAQC1NTUoKGhAefOnYPT6dwQopZIJBLBo0ePEI1GsWfPnnU5W0AQRBJLreXCMvg2bdqEK1euIBgMplxbq6qqSkuQmCAUFxenXffGRCoQCPBCNjQ0xLcsYRl7bI1MqVTyriispkwikaQ1mOXm5vIu8umuNxUXFyMnJwfBYHDBjQNLTzeZTKiqqoLRaFz28TNBKBRCpVJh3759GBgYwPT09IZ0yGd9oDo6OvD+++/jwYMHMJvNz2RiDEFsZLIibAUFBcjNzcX09HTKQbuwsBC5ublpRy05OTnYtGnTshfuWQJAMBhEX18fzpw5g6GhId75gh1//j4AMDo6itu3b0Or1eL48eM4ceIEZDIZxGLxsgROJBKhrKwMNpstpRPL01CpVCgtLYXdbk8qbPF4HBMTE3ypwWpaVYlEIjQ1NUEkEqGjo2NDd6eOx+MYGBjAgwcPsH//fvzpT38iYSOIdUZGwsaiterqajgcDlit1pTbFRUVQalUpiVsLMswnXWNSCQCs9mMzz77DFevXkUsFoNSqUR9fT3a29vR1NSE2tpaqNVqiEQi+P1+jI6OYnh4GD09PXj8+DFmZmbw+9//HlevXsXrr7+Obdu2ITc3d8nXwLIF6+rqYLPZ0moSynw1Hz9+nDQhIx6Pw2QyYevWrcjPz4fD4Vg1cSksLMTevXvR1dXF9zTbqDBLs4sXL+Jv/uZv0Nvbi66urrW+LIIgEsg4YmPGvSMjI0nNYtkaUX5+floJFCzlPZV3YipYW4Pu7m589tlnGBoaQjgcRmFhIV577TW89957KCgogEajgUql4nvAcRyHtrY2eDweuFwudHR04F/+5V/Q39+PkZER/O53v4PFYsGRI0eg0+mWnKwhEAigUqlQW1uL3t7eZUc1LDJWqVRJhTEej8Pr9cLtdqOkpIR3zV9JmGCXl5cjEomgv78/a4bQ65lYLAar1Yquri60trair6/vmSo+J4iNTkar3yxiq6ysxNjYWMqkEa1Wm1YWIzt+SUkJ1Gr1koUtHo8jGAzi6tWrc/wJ4/E4DAYDTp48ieLiYqjVahQXF/PTpLm5udDpdCgpKYFOp0N+fj6OHDmC7du3QyQS8dHfmTNncPr0aczOzi55MEt8L+lMySauZSbLjmTFxF6vF6WlpauW9i+Xy6HX6zEzM7MhE0aSwaZ5BwYGkJ+fTxmSBLHOyDitq7CwEPn5+ZiYmEgqbGx9LLG1wFJhUc5yTX4DgQA6Ojrw5z//GRaLZU7kMjw8jE8//RQDAwNwuVwwmUwwmUywWq2w2+2Ynp7GxMQEZmZmMDU1hTNnzuDmzZtzmk663W58++23+NOf/oRAILCsyIi53aebUVdSUpLS9T8QCMDpdKK0tHRVupALhULk5ORAq9VibGxsQ9SsLRXWPsjn86G8vHzdON8QBJGFNbbq6mr4fD5Yrdakd+sSiQRarTat+iq2NrfUQZrdSY+MjODcuXMwmUwLpkdnZ2fx+eef49atW/z6msFgQGFhIUQiEQKBAL/GNjAwgJGREdjt9jniFY1G4fF4cOnSJeTn5+PUqVNLNj5mps0qlSplIftin0d+fj4UCsWC9xWPxxEOh2G329Hc3IycnBy43e5lHX+5MGHLycmB2Wze0Gtr82FTvx6PB2VlZeju7l7rSyII4gkZr7EZDAaMjo6mLMaVyWQZ1a4VFRUted9YLAaHw4ELFy5gYGAg6UDLmkqOjY1hYmICFy9enGNYzMSRvZ9oNJr0vbGB7dNPP0VdXR2ampqW5P7O1hw1Gs2yhQ34fk0zPz8fHo8n6TV5PB6+L91Kw7qfRyKRDZvinwr2d2SxWPhkopmZmbW+LIIgkIWpyIKCAkxNTaV8XSqVpr2+JpVKodVql7xvNBpFT08Pbt68mTI5g4kWayseDAbh9/vh8/ng8/ng9/sRCAQQCoUQDocXTfJgDvDnz5+H1+td8vtSKBRpdzZg9mWpCAaD4DhuVaYiBQIBqqqqMDEx8dwlT7CbHofDwf+dEgSxPshY2FQqFTweT8rXJRIJVCpVWsKWl5e3rPYv4XAYX375JQKBwLLOlQkcx6G3txednZ1L3oc59y/XIJllIS42iDJLsNVY82F+mCaTacXPtV5h073p1mgSBJF9Ms6KVCqV8Hq9Se/WWZ+ydBzumaHuUuE4DkNDQxgcHFzVgtlYLAan04menh74fL4lRy1yuTytqEogECxqzxWJRBCNRlfc7onZhYnFYtjt9hU913rG5/MhGAzydZAkbgSx9qQ9+rGoQywWp4zYhEIhFApF2lNuS52uYx2lOzo6Vn1KjBXsjo+PL8jAXAwmbOkIPvvck8FxHDiOW/GIjUXUkUgEPp9vRc+1ngmHw/D5fFCpVGtqQE0QxA9kJGzMSSRZ9h2bNktn8Aa+zx5UKpVL3p7jODx69GjN1nnsdvuyfAMVCkXafb2EQmHKfSORCMLh8Ir2ZkvsXu7z+Z6rNP/5cBwHn88HhUKx5v3wCIL4noyEjdWmLRaxpduLTC6XLznqiMfjsFqta1og7Ha7YbPZlhyxCYXCtAdClliTbF+O4xAMBtM2bF7ONeTl5cHtdj9X2ZDzYdmRUqmUIjaCWCdkHLH5/f6UAxtruJkOMplsWYkjycyBV5NIJAKn07ms6IW9x3RI9bky1xXmVLJSEQRLYlkN6671DHP8Z8JGERtBrD0Z3dIrlUo+YSJVpJTuwC2VSpe1r9/vX1VH+/kw549Eh5LFEAgESy7qTrZvqs8mUdhWOmLTarVwu93PVZr/fJiwsa4PBEGsPRlFbCKRaNEuyZncvQoEgmXtvx66NS/X2Hg5Eel8FtsvFost+/NL5/wSiSSp8fXzRjQaXfHPmyCIpZO2sLHIYLGsx0wiKOb4sVTSKSnIJmzadTlRUiYZnItN/8pkMr4QfaWIxWJwu91pFd9vJFjBPSuzIAhi7clI2Hw+H5RK5aKRR7qDK3PjXyoajSajCChTWDLNUqejmLdjOp8Pc71IhVwuX3FhY127n/fCZLbWHA6Hnzv3FYJYr2QkbH6/H2KxGHK5POk2zLoqHUKh0JKnFwUCAQoLC5fk1bhSSKVS5OXlLTkLlNW/pStsqQZRkUgEuVzOO5Cs1EAbi8XgcrlI2J7c0DBhIwhi7ck4YgOQ0nCXRSXpEAqFliWKGo0GBoNhzQZZrVa7LMPmcDicdlNOJorJkEgkkMlkiEQiKxaxsSlmp9MJjUbzXLdsEQqFFLERxDoj44gtFotBo9EkfZ2ZBKfzz87WcJa6r0Qiwfbt21fcSioVhYWFy+qzFgwG0xb9aDSacqpWLBZDLBav+HpPLBbD7OwsZDIZFArFip5rPSORSPiyF4rYCGJ9kJEKRKNRBIPBpMIG/JBgks4gG4/Hl9xPjGVo7t69G7m5uasaQbA79pqaGhQWFi5L2Ja7jgh8LyiL1Q5KJBKIxeIVry1jEZtEIoFarV7Rc61npFIpX/ZCERtBrA8yDm98Pl9KU142FRkMBpf9D88GzqXuJxKJoNPpsGvXrlWtJxIKhSgoKEBbW9uyMjPTFbZ4PA6Xy5VyP7FYDJFItOIRG6vbc7vdKC4uXtFzrWc0Gg2kUulz78BCEOuJrAhbXl5eyteZSW46kQkTtqXuKxaLcfLkSej1+mWdKxMkEgn27NmDxsbGJW3PxN7r9S576oplOjqdzpTbSKVSSKXSVRlk4/E4xsbGsGnTpucygUQgECA3Nxccx6XVNJYgiJUhY2EbHx9HVVVVytfD4XDSbs9LIR6Pw2w2L3lfoVCIoqIiHDt2jG8jslKwAmW9Xo8TJ04sKxsyEAgsuTHpfGKxWMo2MSxDbznTuJkQi8UwNDSE4uJiqNXqNVvfXAvY77+wsBAulwuzs7NrfUkEQTwh45FodHQUJSUlvNP/fEKhEFwuV9rrbMtpBSMUCqFSqbBv3z4cOHBgWd0BlotAIEBZWRnef/99FBUVLcuw2efzpSVsLBsy1RQt828MhUKrJmwTExMIhUIoKSl57oRNpVJBq9VieHh4VZvbEgSxOBmNRPF4HJOTkwiFQigvL086uLNpmmAwmNbxHQ7HsrIjBQIBioqKcOrUKWzfvh0qlSrrA65EIoHBYMA777yDLVu2LCsy5DgONpstZbr+07BYLEnLIFjvO51OB7PZvCo90ljmqtPpfO6EjTVa1Wg0mJiYINcRglhHZGWNzWQywWAwJB3gWRJIugNtKBTC5OTksvaRSCSorq7G22+/jZ07dy7b6ioVzFi4oqICb731Fnbv3r2sfnOsRGJqairtwmy273yhZ9ZOOTk5mJqaWpWBlk15WiwW6PX6lIX6GxGBQICSkhJEo1FMTk5S4ghBrCMyjtg4jsPY2BgqKytTCpvL5YLX600rAzAWi8FqtcJqtS578CgvL8f777+P1157DUqlMqM2Lqxp6ubNm/EXf/EX2LNnz7IGcvZZjY6Opp0NGQwGU07NJgrbchqeZgKrVZyamoJKpYJOp3suojZmeLx582aMjIyk9fskCGLlyHgUikajGB0dxaZNm5Cbm7vg9Xg8jkgkAqvVmnbav8/nw/j4+LKnMyUSCQoKCvDuu+/ib//2b9HQ0AClUsn3zlrMW5LVxkkkEsjlcqjVarz00kv44IMP0N7ezntkLud9zMzMwGQypV2wbrFYUg6iLIKQSqWYnp5etQgiHo/DZDLBbrejubkZCoViw4ubWCxGU1MTioqK1rRrO0EQycmo4IvdsY+NjUEsFqO4uBhmsznpthaLhe9btdyoKRaLwWazwWq1YtOmTcta02JrT7t27UJDQwPu3buHjo4OmM1meDwe+Hw+RCKROYOTQCDgxUyr1aK5uRkHDx5EbW0tRCLRsgduFm0NDg6mXcTLcRxMJtOiJQKlpaUYHx9P2+0lXcLhMB48eIATJ06gtLQUIyMjG3ZqTiAQICcnB8ePH8eVK1dSdo8nCGLtyLiSma0b2Ww2VFRUoLu7O6n5rtPphMVigVarTVsYxsfHoVarkZeXt6xjsMgsPz8fR44cwa5duzA+Po6JiQlYLBa43W7ekJiZCOt0OpSUlKC6uhpFRUWQyWRpT2WGQiEYjca0yx4AYHZ2FlarNekUI5smraqqwo0bN1Y9gojFYjCZTBgbG8MLL7wAs9m8qDvKswpbY922bRtisRi6u7s33HskiI1AViw6OI7D4OAgqqqqoNPpYLVaFwyu0WgUw8PDqK2tTcsZJB6PY3Z2FqOjo7zbw3Jg6yKsgDkvLw9tbW389YdCIUSjUb5bQTan0ywWC0wmU9rrXrFYDGazOWV2qFAoRG1tLSQSCYaHhzO93GXDIveuri40NzejpaUF9+7d23CDPusisXnzZnz99ddptx0iCGJlycrozXEcent7IRAIUFlZmVS44vE47HZ7Rhl7sVgM09PTGBsby6ovn1gshlKphEajyeoaEZtCHR8fTzvBgLWHYWn+ybIhJRIJ9u/fjwcPHizqSrLS2Gw2XLt2Da+99hoMBsOa9sdbCTQaDQ4ePAir1Qqj0UhrawSxTsnKCB6NRmGxWDA7O4u2trakprgsK7CnpydtUWKJKENDQynT3tOFRXTZGojj8Ti8Xi+MRiOcTmfad/bRaBQzMzOw2Wwp32t1dTXKy8tx586dNXWY5zgO3d3d6OzsxKuvvoqCgoINkUjCuqO3tLRAr9fj6tWrlAlJEOuYrIw6rJ6pr68PhYWFyMvLS2mKbLVaMTw8nPagwNw3ent7YbFY1mWrEObAbzQaMT09nVHqvdfrxfDwcNKCbrbms2XLFnR1daVVUpFN2O/m3LlzmJmZwbFjxzZESxuJRIK2tjZs3boVFy9ehNlszupNFUEQ2SVrwhaLxfgoqqamJqnTPVuLGRwczCi5IFHcmPPJeljrYO/P7Xajp6eHL9xNNzrlOA5ms5kfSOcjFAqh1+tRVVWFe/fuLcsweqVgXpiXL19Gfn4+9u/f/8z6SLJp3qqqKhw/fhxdXV0wGo0kagSxzsnqaGOz2dDb24u6urqUdV7Mnb6/vz/tRpvsOB6PBwMDAxgeHk6rg0A2YdOk09PTePToEcxmc0bRJCtsHxgYSJplCnzfqqepqQljY2Prxv2CibvNZsONGzfQ0tKCLVu2QCKRrPWlLRuhUIiysjK89tprMBqNuH///op2JicIIjtkVdgikQh6enqQn5+Ptra2lMkD4XAYo6OjSbMnl0swGMTIyAi6u7t5MVnNgYcN5Exke3t7l9VHbrFj9vb2wuFwpCzILioqQm1tLXp7e9Mqfl9JOI5DX18fOjs7ceDAATQ0NKRVw7hWSKVSVFRU4M0334TFYsHXX38Nv9+/1pdFEMQSWCBsmQw80WgU4+Pj6O7uxo9//OOUHaVZ1GY0GuH1ejMSolgshlAoBIvFgp6eHgwMDMDn8634dBGb9otGo5ienkZ3dzdGR0fh8/lSRlhLJRaLYWxsDCMjI0nX55h91o4dOxCPxzExMbHuujfHYjEEAgHcvXsXAwMDeO+997Bjx46s+XauFMxxpra2Fj/96U8xOzuLL7/8Em63m4yOCWKdkUqvFowwYrE4bXFj03Fff/01bDYbjh07lrLejFlxGY3GpG716Zzb5/PBaDTi3r17MJlMfJ1Rtgd8tqbodrvx8OFDPHz4EDabLSviwhJs7t+/j3A4nPR4YrEY5eXlKCkpwY0bN9Z1k0uPx4MLFy7g3LlzeO+99/Diiy+u28iN1Tm2tbXhvffeQ39/Pz799NOUUTNBEGsHy1ZOhnj+ACOVSjO6o2YuIV988QV+9atfYWBgAHfv3k0qMGy6Sq/X89FdJgMeS7hwuVzo7OxEYWEhKioqkJOTA5FINCdaYOdZ7HyJyRgsOotGo/D7/bBYLBgfH8+qeLJsyu7u7pQZjqxdysGDB2GxWDA0NLSuI4loNIpgMIj79+/D5XLhjTfegFKpxNWrV+FwOFZ96jgZLEpTqVRoa2vDoUOHcO3aNdy8eZOPwAmCWF8IhUJIJJKkY/gCuWP/4JlEAcyJ5Pr169i5cyeMRmPSu95YLAav14u7d+9iz549yM/Pz8qdPBMas9mM6elp3oZLq9VCpVJBJpNBKpVCIpGkTGqIxWIIh8P8gzX4nJ2dhdvt5hNfsnknHwwG0dfXlzLxhN2hbNmyBfn5+bh06dK6W1tLBsti7e/vx0cffYSXX34Zb7/9Nr799tt1kfgjl8uh1+tx8OBBlJaW4sKFC+js7ExaEE8QxPqAuUQlagb7XiwQCOakJgoEAuTl5aU0M14KLLq5fv063njjDRw4cACXLl1Kahgbi8UwMzODe/fuYceOHdBqtcsyOV7sGthXZnY8NTUFqVQKhUIBuVzOP1g0JxAIEI1GwXEcIpEIgsEggsEgAoEAX57AorhsDnhs4B8eHsbg4GDKJqSsF9zBgwdx5cqVtDsFrAXsb8JkMuHcuXM4fPgwDh8+jKamJnR1dWF8fBx+v39VShZYIb5MJoNer0dzczMqKiogEolw7tw59Pf3Z7xOShDEysFmruZPRTI9EwuFwvD8HQoLCzM+MROsu3fv4tChQ+jr60N/f3/SwYI510skErS3t6cs8E6XxGnESCQyp+kpm4ZiBsdsu9Vs+8LWG3t7e1O6xQuFQmg0GrzyyiuwWq18RPEswaaKJycncebMGVRXV2PPnj14/fXXMTQ0hBs3bsBiscwRlWw6y7CvzKF/165d2LJlC8LhMO7du4eBgQHYbLY1nxolCCI1zJgiLy9vwWtMz8RqtXqITWexHUpKSjIWFjaI9ff3o6qqCocPH4bb7cbMzEzSaTaWUSkQCLB161ZoNJqsRG5Lvc7EdZTVulNPbD764MGDRbuMKxQKvPjiixCLxfiv//ovPrp5FmFRdHd3N8bHx1FeXo4DBw7gl7/8JXp6etDd3Y3JyUlEIhE+ISeT98qmcMViMYqKilBfX49t27ZBIBDg5s2b6O/v59f7ntXPlCCeJ8Ri8YIA7MnN/xAAiHNzcx/bbDb+RZFIhPLy8qxETMxq6/Lly3jvvffw6quv4qOPPuKjlPnbsvo2oVCI9vZ2aDSarPo3Pu1aVxP2GQwPD+PWrVspneKFQiFEIhH279+P+vp6fPTRR898lh4TqlgsBofDAZfLhYmJCezatQv79+/HyZMnMTg4iPv37+Phw4dzjJ3nv+/5ffSSfS+Xy7F582bs2LEDra2tCAaDuHXrFr777js+QqQojSCeDdiNql6vX/A/n5ub2wkAYq1W+3D+Tnq9HhqNBrOzsxn/wzMT388++wy/+MUv8NZbb+HMmTNwuVwppyWHhoYQi8XQ1tYGrVa7LlPDMyUYDMJoNOLRo0eLtj+Ry+XYtWsXdu7ciYsXLy6YqnvWYQI/OzuLixcv4vLlyygtLUVtbS2amppw+PBhmEwmDA8Pw+v1IhQKIRAI8NEcW/dk08ms47lMJoNMJoPBYEBVVRUCgQD6+vpw+fJlDA8P82JG9lgE8WzB1sdLSkrmPCcUCq9rtVpe2DoFAsEdADvZBgKBANXV1Xjw4EHGwsbuzs1mMz7++GP8/Oc/x+HDh/HVV18l9XhkA93IyAjC4TC2bNmCgoKCjOrr1gssSmH1dn19fSk9M5lPYX19Pfbt24d79+6hp6dnQ2bqJUZwbEraZDLhxo0byM/P52v2iouLoVKp+BRfJkzA95EtK+WIRCJ8ws/4+DiuXbuGmZkZvufeRroxIIjnDaZPSqVy/vPhlpaW76ciq6qqwhKJxJE4NSgUClFfX4+urq6suedHIhGMjY3hk08+walTpzA7O4uOjo6UwslxHCYmJhAIBNDU1ASDwbBuC3uXSjwe5/00JycnEQgEUm7LDI6PHTuGwcFB3Lp1C16vdxWvdm1ITPQJh8Pw+XyYmJjgXxcIBJDL5VAqlVAqlXz/PCZkfr8fwWCQas8IYoMiEAiwefPmBcGOXC6fZt+LAUCr1T6cmZk5wURGIBDAYDBknPY/n1gshtHRUVy4cAHHjh2D3+9HZ2dnyjUO1pz0wYMHsNlsaGpqQm5u7jPXwJJFIkajcU6iQirEYjGkUil+8YtfYHp6GpcvX4bb7V7FK16/MAMAVlcIfP/3mliGQdEYQWxMWJp/Y2PjHCORJ2VqnexnMQDk5eV1JqY5C4VCaLVaVFdXY3p6OmsDBUsQGRoaglarxdGjRxEIBDAwMAAAKaclmcGw0+lEc3MzSktLebVerwKXOMg6nU48fvwYY2Nji2YzsqxUrVaLX/3qVwCAs2fPPvPJItmGxIsgnk9EIhHq6+uhUqnmO2Td0el019gPTNjuCIXCKwCOAN8PsGq1Gg0NDbh9+3bW06DD4TBu3bqFWCyGX/ziF/jkk0/Q19eXsq8aS4ufnp7GzMwMampq0NraypcErDdxY+tFwWAQo6OjePz4MVwu11MTFSQSCTZt2oSf//zncLlc+O1vf7sh19QIgiDSgdU6z4/WhEJheMeOHdfZc6IPP/wQRUVFjtHR0Tafz7c3YUPEYjGYzWY4nc6spkOzgX9mZgY+nw+vv/46IpHIU70DEyOg8fFxRKNRPpGATU+ulcixa+M4Dl6vF2azGQ8ePEB/fz8CgcCin59QKIRcLkd9fT1eeeUVTE1N4fTp0+RTSBAE8QSBQIDGxkbs27dvTr9PoVCIoqKijxsaGr5m2/J+JAUFBdetVusHidGBTqdDY2MjpqamUjpiZEI4HEZHRwdCoRBeeeUV6PV6fPPNN5iamkq5DxMPj8eD+/fvY3h4GBUVFSgpKYFOp1vgHbZacBwHt9sNi8WCiYkJmEymJWfficVibN++HXv27MHExAS+/vprmn4kCIJ4Akvxb2lp4fMsGCKR6HpJScnZxO1FH374IQAgEAjMWq3WBo7jGtiLQqEQMpkMY2NjGTfPXAybzYbJyUnes8/lcqVMg0+EeSzabDbYbDY4HA5+v/lTlNm26GIJIR6PByaTCUajke/mzer/Fvu8mJVXfn4+Dh48iPb2djx69AjXrl3jpy0JgiCI72/+q6ursX///gWWi1qt9sLx48f/vznbs28aGhqmh4eH7wSDwVNs+kskEqGsrAybN2/G1NQUAoHAivQ2C4VCGBoaQiQSwcGDB/GTn/wEN27cwMOHDxGJRBYVCVbLZLfb4XA4MDExAZVKBa1Wi6KiIhQWFiI/P39BJuVShS5ZRwKfzwebzYaZmRnY7XZ4vV74/f4llUaw6VKRSASDwYAf/ehH0Gq1OH/+PN8klSAIgvgBjUaDtrY2FBQULBjHi4qKrszffo41cmVl5b87HI6dPp/vFNtJLBZj586d6OnpwdjYWNbq2ubDCnPPnTuH7du34/XXX0dLSwvOnz8Pq9Wa0vE+kfmp4JOTk7xzv06nQ35+PrRaLTQaDdRqNS8y80WOiRnrzu31euFyueB0OmG32+Hz+Xh/yeXaMYlEIuTl5WH37t3Yu3cvBgcH8Yc//AEej2fFPluCIIhnETY+l5aWYsuWLZDJZPxrT7whPy4vLz+9YL/5EcmZM2f+bmZm5teJg3UkEsGjR4/wH//xH09NhMgUoVAIsViMuro6vPTSS9DpdLh48SLu3buHYDCYliku+3BY1Ma+KhQKvi8bM1xma3jhcBjBYJDPSmTTj+lYMLFzyuVylJaW4uWXX0ZeXh6uXLmCe/fuzWmJQxAEQXwPCwR+8pOfYPv27QASeq6JxdcNBsPHx44d+4f5+y0Qtv7+fv3t27f/LRgMnkhsHRKJRPCnP/0J169fRygUWtFBmAmBRCLB4cOHsXfvXthsNnR0dPDTdemI6/zI7GnTkYsZ7i4HhUKBwsJCHD58GDU1NTAajfj2229hMplI0AiCIFIglUpx7Ngx/PjHP54TrQkEAmi12n9/++23/yrZfnzyCKOgoMDrcDgUTqdTH4/Hy9hBBAIBiouLYTabkdgNYKVgEZLJZML4+Dh0Oh1aW1tRUlICmUzGF3uzbdM9x2KPdGFRp1qtRk1NDXbs2IG9e/dCo9Hg8uXLuHbtGhwOB6XyEwRBJIF55dbV1eHll1+eU5D9ZInsenV19W/Ly8sHku6fagD/wx/+8G8ul+svE1+PxWIYGBjA6dOn+XT21YAVjLe0tGDr1q3Q6XQIhUJ4+PAhHj9+DLPZvCb91OZfI/uqVCrR2NiIlpYWGAwGuN1u9PT0oKurCxaLhTIeCYIgFkEoFKK6uhpvvvkmDAbDnN6cQqEQBQUFv3n99df/Z6r9Uwpbd3d37YMHD/7fQCBwgj3HMhi7u7vxxRdfwGw2r4q9ERMNqVQKjUaD3NxcNDc3o66uDhqNBsPDw3j48CGMRiM4jlvQOHQlYf3SxGIx8vPzsXnzZmzduhVSqRTDw8Po7+/H1NQUnE4n356Gph4JgiCSIxaLUVxcjDfeeAMNDQ1zzI6fmKBf2Ldv31s1NTUpXeFTChsAXL9+/c3Hjx//Oh6P70xcb+M4Djdv3sQXX3wBl8u16lNqQqEQUqkUubm5aGpqwp49e2AwGDAwMMA/Jicn5xRIzxeUVN8DqRtWJmZRsuflcjmamppQX1+P5uZmRCIRPHjwADdv3oTL5UIwGCQxIwiCeApsXNXpdHjllVfQ3t4OuVw+ZxuJRHK9tbX114n2WUmP9bQB96uvvvrAZDK9GYlE9rPnWDLJ9evX8dVXX2XdcmspzM9yrK2tRUtLCyorK1FSUgKfzweTyYTR0VEMDAzMaWfCshvnP+LxOF9jxvp7JT4kEgmUSiWKiopQW1vL9wnzer18dNbb2zsny5GmHQmCIJ4OM6w4fvw49u7dC4lEMmddTSgU3qmrq/vNoUOHPn7asZ4qbMD3JQBWq/XXiZFHLBYDx3G4du0avvnmG7DuAGsVmYjFYr6Dcm5uLvR6PYqLi1FSUoK8vDzY7XZegJlrCPsaDof5aUKJRMKXACSKGjt2YWEhBAIBZmZmYDabMT09zdfZpVPXRhAE8TzDgomioiK88MIL2LFjB1Qq1ZxtJBLJ9bKystMvvvjib5Z0zKUI0cDAQP6dO3f+ze/3n5o/hReNRnH//n189dVXfPr6eoIlnhQVFSEvLw8KhQJyuXzBV7lcDqFQyNevBYNBBAKBOV99Ph9mZmbgcDj4jEyCIAgifYRCIQwGA44dO4atW7dCLBYv2KaoqGjRZJH5LEnYAKCnp6f2zp07/8Rx3JFE8YrFYohEIhgcHMS3336LgYEBPvpZL8wvzE5ciGSp+VKpFAKBABzHIRKJ8Otz8x8sKqU1M4IgiPQRCASQSqVoamrC0aNHUVVVxXdrYTxpLPrxrl27/qq6unrJ0cSShQ34PnK7fv36GY7j9ieL3Kanp3Hjxg3cvXsXXq+XkiYIgiCIObCpR7Vajd27d2PPnj0oKipaEKkJhcI7YrHYe+DAgVdra2tTZkAmPcdyhWd4eFja0dHxaSAQOJUYlbFohuM4dHd34+zZs7DZbLTmRBAEQQD4wbyiqKgIr732Gp/On8SkvlOlUg397Gc/eyud8yxb2ABgcHAwv7u7+/+cnZ1tj0aj++cfIxKJwO1247vvvkNnZydcLhfC4fCS+5MRBEEQG4NEr9ycnBxs3boVe/fuRX5+ftL2YhKJ5Ep+fv7tV1999X9L+5yZCM2FCxd+PTU1dSqxFAD4waoqGo1iYmICDx48wMDAAMxmM8LhMIkbQRDEc4JCoYBer0djYyO2bt2KsrKyBYIG/CBqBoPh4yNHjvw2k3NmJGwAcPXq1Z9OTk6+6ff730xWBB2NRhEMBmE2mzE8PIyxsTFMTk7C6XTy6fFsW4IgCOLZJbE8SqvVory8HAaDAdXV1SgpKeGzz+dHaUKh8I5Go+k1GAwf7969+0Km15GxsAHfr7v19/f/2mKxHIlEIkeA5EIVjUZht9thtVoxNjaG0dFRTExMwOPxUKIJQRDEMwrLNs/NzUV5eTmqqqpQUVGBoqIi5ObmQiKRJN0HACQSyZVNmzadPn78+IL2M2lfTzbFpKenp7a/v/9vnU5n0rW3xCnKSCSCUCiEUCgEm82GqakpTE9Pw263w+Vywefzkfs9QRDEOoRlNebm5kKn06G4uBhlZWXQ6XSQyWSQyWSQSqULSqwYTyK760VFRZcbGhr+vq6uzpHN68uqsDFu3759ZHBw8INwOJyfKHCpzsUcQObbXYVCIUQiEcqqJAiCWAcwa0GZTMavkzELQvZzqj6XLIlEKBReV6lUQ/X19b9pb2/vXInrXBFhY9y8efOE2Ww+5ff7K4LB4KnFIrBk4kdTkwRBEOuPZEbxTxM0hUJxWqlUjpeXl5/evn37oibGGV/faohHf3+/fmZm5ojb7W4KBAL6YDCoD4fDp7LV2JMgCIJYOxLFjQmZVCo9q1Qqx+VyuSU3N/dhUVHRleUWWqd9PWshKI8fP67weDw1Ho9ns8/nK/f7/RU+n682FotJAbSt+gVtYOiGgSB+IFVUQaRNJwCIxWKvUqkcV6lUQyqVakKj0fRqNBpjQ0PD9Fpc1JoIWypGRkakHMep2WM9XduzSDwel4TD4XyPx1Mbi8X+aa2vhyDWEoFA8N/VavWQXC6fFggEkbW+nmcZoVAYFovFXrFY7F2tKGw5rCthI1aGBw8e7IzFYrfpd008zwiFwl3btm27s9bXQaw8C/sDEBsOgUAQfvJ1rS+FINYM+vt/fhCu9QUQBEEQRDYhYSMIgiA2FCRsBEEQxIaChI0gCILYUJCwEQRBEBsKEjaCIAhiQ0HCRhAEQWwoSNgIgiCIDQUJG0EQBLGhIGEjCIIgNhQkbARBEMSGgoSNIAiC2FCQsBEEQRAbChI2giAIYkNBwkYQBEFsKEjYCIIgiA0FCRtBEASxoSBhIwiCIDYUJGwEQRDEhoKEjSAIgthQkLARBEEQGwoSNoIgCGJDQcJGEARBbChI2AiCIIgNBQkbQRAEsaEgYSMIgiA2FCRsBEEQxIaChI0gCILYUJCwEQRBEBsKEjaCIAhiQ0HCRhAEQWwoSNgIgiCIDQUJG0EQBLGhIGEjCIIgNhQkbARBEMSGgoSNIAiC2FCQsBEEQRAbChI2giAIYkNBwkYQBEFsKEjYCIIgiA2FeK0vgFgdBALBrng8Ll3r6yAIglhp/n9lBGFAEbGhMgAAAABJRU5ErkJggg==;" parent="1" vertex="1">
          <mxGeometry x="191.86" y="200" width="101.27" height="40" as="geometry" />
        </mxCell>
        <mxCell id="IVsWJX17wTfRQNtMENxd-17" style="edgeStyle=orthogonalEdgeStyle;rounded=0;orthogonalLoop=1;jettySize=auto;html=1;" parent="1" target="IVsWJX17wTfRQNtMENxd-16" edge="1">
          <mxGeometry relative="1" as="geometry">
            <mxPoint x="242.5" y="320" as="sourcePoint" />
          </mxGeometry>
        </mxCell>
        <mxCell id="IVsWJX17wTfRQNtMENxd-18" value="executes" style="edgeLabel;html=1;align=center;verticalAlign=middle;resizable=0;points=[];" parent="IVsWJX17wTfRQNtMENxd-17" vertex="1" connectable="0">
          <mxGeometry x="-0.5117" relative="1" as="geometry">
            <mxPoint y="5" as="offset" />
          </mxGeometry>
        </mxCell>
        <mxCell id="IVsWJX17wTfRQNtMENxd-71" value="" style="edgeStyle=orthogonalEdgeStyle;rounded=0;orthogonalLoop=1;jettySize=auto;html=1;" parent="1" source="IVsWJX17wTfRQNtMENxd-70" target="IVsWJX17wTfRQNtMENxd-16" edge="1">
          <mxGeometry relative="1" as="geometry" />
        </mxCell>
        <mxCell id="IVsWJX17wTfRQNtMENxd-20" style="edgeStyle=orthogonalEdgeStyle;rounded=0;orthogonalLoop=1;jettySize=auto;html=1;" parent="1" source="IVsWJX17wTfRQNtMENxd-16" target="IVsWJX17wTfRQNtMENxd-33" edge="1">
          <mxGeometry relative="1" as="geometry">
            <Array as="points">
              <mxPoint x="252" y="550" />
            </Array>
          </mxGeometry>
        </mxCell>
        <mxCell id="IVsWJX17wTfRQNtMENxd-21" value="uses" style="edgeLabel;html=1;align=center;verticalAlign=middle;resizable=0;points=[];" parent="IVsWJX17wTfRQNtMENxd-20" vertex="1" connectable="0">
          <mxGeometry x="-0.6886" y="1" relative="1" as="geometry">
            <mxPoint as="offset" />
          </mxGeometry>
        </mxCell>
        <mxCell id="IVsWJX17wTfRQNtMENxd-23" style="edgeStyle=orthogonalEdgeStyle;rounded=0;orthogonalLoop=1;jettySize=auto;html=1;" parent="1" source="IVsWJX17wTfRQNtMENxd-16" target="IVsWJX17wTfRQNtMENxd-22" edge="1">
          <mxGeometry relative="1" as="geometry" />
        </mxCell>
        <mxCell id="IVsWJX17wTfRQNtMENxd-24" value="LAN" style="edgeLabel;html=1;align=center;verticalAlign=middle;resizable=0;points=[];" parent="IVsWJX17wTfRQNtMENxd-23" vertex="1" connectable="0">
          <mxGeometry x="0.1377" y="1" relative="1" as="geometry">
            <mxPoint x="-1" y="1" as="offset" />
          </mxGeometry>
        </mxCell>
        <mxCell id="IVsWJX17wTfRQNtMENxd-16" value="Recorder" style="shape=umlFrame;whiteSpace=wrap;html=1;pointerEvents=0;recursiveResize=0;container=1;collapsible=0;width=63;height=20;" parent="1" vertex="1">
          <mxGeometry x="188.43" y="350" width="108.14" height="80" as="geometry" />
        </mxCell>
        <mxCell id="IVsWJX17wTfRQNtMENxd-52" style="edgeStyle=orthogonalEdgeStyle;rounded=0;orthogonalLoop=1;jettySize=auto;html=1;" parent="1" target="IVsWJX17wTfRQNtMENxd-42" edge="1">
          <mxGeometry relative="1" as="geometry">
            <mxPoint x="506.05" y="350" as="sourcePoint" />
            <Array as="points">
              <mxPoint x="470" y="350" />
              <mxPoint x="470" y="295" />
            </Array>
          </mxGeometry>
        </mxCell>
        <mxCell id="IVsWJX17wTfRQNtMENxd-53" value="emits data" style="edgeLabel;html=1;align=center;verticalAlign=middle;resizable=0;points=[];" parent="IVsWJX17wTfRQNtMENxd-52" vertex="1" connectable="0">
          <mxGeometry x="-0.1694" y="-1" relative="1" as="geometry">
            <mxPoint x="29" y="-19" as="offset" />
          </mxGeometry>
        </mxCell>
        <mxCell id="IVsWJX17wTfRQNtMENxd-54" style="edgeStyle=orthogonalEdgeStyle;rounded=0;orthogonalLoop=1;jettySize=auto;html=1;" parent="1" source="IVsWJX17wTfRQNtMENxd-22" target="IVsWJX17wTfRQNtMENxd-16" edge="1">
          <mxGeometry relative="1" as="geometry">
            <Array as="points">
              <mxPoint x="350" y="410" />
              <mxPoint x="350" y="410" />
            </Array>
          </mxGeometry>
        </mxCell>
        <mxCell id="IVsWJX17wTfRQNtMENxd-55" value="emits commands" style="edgeLabel;html=1;align=center;verticalAlign=middle;resizable=0;points=[];" parent="IVsWJX17wTfRQNtMENxd-54" vertex="1" connectable="0">
          <mxGeometry x="-0.2307" y="-2" relative="1" as="geometry">
            <mxPoint x="-9" y="2" as="offset" />
          </mxGeometry>
        </mxCell>
        <mxCell id="IVsWJX17wTfRQNtMENxd-56" style="edgeStyle=orthogonalEdgeStyle;rounded=0;orthogonalLoop=1;jettySize=auto;html=1;" parent="1" source="IVsWJX17wTfRQNtMENxd-22" target="IVsWJX17wTfRQNtMENxd-35" edge="1">
          <mxGeometry relative="1" as="geometry">
            <mxPoint x="534.05" y="409.9999999999999" as="sourcePoint" />
            <Array as="points">
              <mxPoint x="580" y="410" />
              <mxPoint x="580" y="410" />
            </Array>
          </mxGeometry>
        </mxCell>
        <mxCell id="IVsWJX17wTfRQNtMENxd-57" value="emits commands" style="edgeLabel;html=1;align=center;verticalAlign=middle;resizable=0;points=[];" parent="IVsWJX17wTfRQNtMENxd-56" vertex="1" connectable="0">
          <mxGeometry x="-0.2218" y="-2" relative="1" as="geometry">
            <mxPoint x="10" y="-2" as="offset" />
          </mxGeometry>
        </mxCell>
        <mxCell id="IVsWJX17wTfRQNtMENxd-22" value="Socket" style="shape=umlFrame;whiteSpace=wrap;html=1;pointerEvents=0;recursiveResize=0;container=1;collapsible=0;width=63;height=20;" parent="1" vertex="1">
          <mxGeometry x="409.86" y="350" width="108.14" height="80" as="geometry" />
        </mxCell>
        <mxCell id="IVsWJX17wTfRQNtMENxd-32" value="For each kinect" style="shape=umlFrame;whiteSpace=wrap;html=1;pointerEvents=0;recursiveResize=0;container=1;collapsible=0;width=160;" parent="1" vertex="1">
          <mxGeometry x="134" y="160" width="210" height="360" as="geometry" />
        </mxCell>
        <mxCell id="IVsWJX17wTfRQNtMENxd-70" value="" style="points=[[0.13,0.02,0],[0.5,0,0],[0.87,0.02,0],[0.885,0.4,0],[0.985,0.985,0],[0.5,1,0],[0.015,0.985,0],[0.115,0.4,0]];verticalLabelPosition=bottom;sketch=0;html=1;verticalAlign=top;aspect=fixed;align=center;pointerEvents=1;shape=mxgraph.cisco19.laptop;fillColor=#005073;strokeColor=none;" parent="IVsWJX17wTfRQNtMENxd-32" vertex="1">
          <mxGeometry x="82.22" y="120" width="52.57" height="36.8" as="geometry" />
        </mxCell>
        <mxCell id="IVsWJX17wTfRQNtMENxd-33" value="Shared Folder" style="shape=umlFrame;whiteSpace=wrap;html=1;pointerEvents=0;recursiveResize=0;container=1;collapsible=0;width=90;height=20;" parent="1" vertex="1">
          <mxGeometry x="430" y="500" width="110" height="100" as="geometry" />
        </mxCell>
        <mxCell id="IVsWJX17wTfRQNtMENxd-43" style="edgeStyle=orthogonalEdgeStyle;rounded=0;orthogonalLoop=1;jettySize=auto;html=1;" parent="1" source="IVsWJX17wTfRQNtMENxd-74" target="IVsWJX17wTfRQNtMENxd-35" edge="1">
          <mxGeometry relative="1" as="geometry">
            <Array as="points">
              <mxPoint x="709" y="170" />
            </Array>
          </mxGeometry>
        </mxCell>
        <mxCell id="IVsWJX17wTfRQNtMENxd-47" value="executes" style="edgeLabel;html=1;align=center;verticalAlign=middle;resizable=0;points=[];" parent="IVsWJX17wTfRQNtMENxd-43" vertex="1" connectable="0">
          <mxGeometry x="0.1258" relative="1" as="geometry">
            <mxPoint y="4" as="offset" />
          </mxGeometry>
        </mxCell>
        <mxCell id="IVsWJX17wTfRQNtMENxd-44" style="edgeStyle=orthogonalEdgeStyle;rounded=0;orthogonalLoop=1;jettySize=auto;html=1;" parent="1" source="IVsWJX17wTfRQNtMENxd-74" target="IVsWJX17wTfRQNtMENxd-42" edge="1">
          <mxGeometry relative="1" as="geometry" />
        </mxCell>
        <mxCell id="IVsWJX17wTfRQNtMENxd-46" value="executes" style="edgeLabel;html=1;align=center;verticalAlign=middle;resizable=0;points=[];" parent="IVsWJX17wTfRQNtMENxd-44" vertex="1" connectable="0">
          <mxGeometry x="-0.2164" y="-1" relative="1" as="geometry">
            <mxPoint as="offset" />
          </mxGeometry>
        </mxCell>
        <mxCell id="IVsWJX17wTfRQNtMENxd-45" style="edgeStyle=orthogonalEdgeStyle;rounded=0;orthogonalLoop=1;jettySize=auto;html=1;" parent="1" target="IVsWJX17wTfRQNtMENxd-22" edge="1">
          <mxGeometry relative="1" as="geometry">
            <mxPoint x="572.26" y="165.99999999999994" as="sourcePoint" />
            <mxPoint x="464" y="356" as="targetPoint" />
            <Array as="points">
              <mxPoint x="450" y="166" />
            </Array>
          </mxGeometry>
        </mxCell>
        <mxCell id="IVsWJX17wTfRQNtMENxd-48" value="executes" style="edgeLabel;html=1;align=center;verticalAlign=middle;resizable=0;points=[];" parent="IVsWJX17wTfRQNtMENxd-45" vertex="1" connectable="0">
          <mxGeometry x="0.1831" y="1" relative="1" as="geometry">
            <mxPoint x="3" y="9" as="offset" />
          </mxGeometry>
        </mxCell>
        <mxCell id="IVsWJX17wTfRQNtMENxd-68" style="edgeStyle=orthogonalEdgeStyle;rounded=0;orthogonalLoop=1;jettySize=auto;html=1;" parent="1" source="IVsWJX17wTfRQNtMENxd-74" target="IVsWJX17wTfRQNtMENxd-33" edge="1">
          <mxGeometry relative="1" as="geometry">
            <mxPoint x="580" y="500" as="targetPoint" />
            <Array as="points">
              <mxPoint x="780" y="160" />
              <mxPoint x="780" y="570" />
            </Array>
          </mxGeometry>
        </mxCell>
        <mxCell id="IVsWJX17wTfRQNtMENxd-69" value="provides" style="edgeLabel;html=1;align=center;verticalAlign=middle;resizable=0;points=[];" parent="IVsWJX17wTfRQNtMENxd-68" vertex="1" connectable="0">
          <mxGeometry x="0.7553" y="-2" relative="1" as="geometry">
            <mxPoint as="offset" />
          </mxGeometry>
        </mxCell>
        <mxCell id="IVsWJX17wTfRQNtMENxd-40" style="edgeStyle=orthogonalEdgeStyle;rounded=0;orthogonalLoop=1;jettySize=auto;html=1;" parent="1" source="IVsWJX17wTfRQNtMENxd-35" target="IVsWJX17wTfRQNtMENxd-33" edge="1">
          <mxGeometry relative="1" as="geometry">
            <mxPoint x="526.05" y="559.9999999999998" as="targetPoint" />
            <Array as="points">
              <mxPoint x="709" y="530" />
            </Array>
          </mxGeometry>
        </mxCell>
        <mxCell id="IVsWJX17wTfRQNtMENxd-41" value="uses" style="edgeLabel;html=1;align=center;verticalAlign=middle;resizable=0;points=[];" parent="IVsWJX17wTfRQNtMENxd-40" vertex="1" connectable="0">
          <mxGeometry x="-0.6443" y="-5" relative="1" as="geometry">
            <mxPoint x="5" y="-1" as="offset" />
          </mxGeometry>
        </mxCell>
        <mxCell id="IVsWJX17wTfRQNtMENxd-35" value="Calibrator" style="shape=umlFrame;whiteSpace=wrap;html=1;pointerEvents=0;recursiveResize=0;container=1;collapsible=0;width=72;height=20;" parent="1" vertex="1">
          <mxGeometry x="654.48" y="350" width="108.14" height="80" as="geometry" />
        </mxCell>
        <mxCell id="IVsWJX17wTfRQNtMENxd-36" style="edgeStyle=orthogonalEdgeStyle;rounded=0;orthogonalLoop=1;jettySize=auto;html=1;" parent="1" source="IVsWJX17wTfRQNtMENxd-35" target="IVsWJX17wTfRQNtMENxd-22" edge="1">
          <mxGeometry relative="1" as="geometry">
            <mxPoint x="534.5907000000002" y="389.6" as="targetPoint" />
          </mxGeometry>
        </mxCell>
        <mxCell id="IVsWJX17wTfRQNtMENxd-37" value="LAN" style="edgeLabel;html=1;align=center;verticalAlign=middle;resizable=0;points=[];" parent="IVsWJX17wTfRQNtMENxd-36" vertex="1" connectable="0">
          <mxGeometry x="-0.1097" relative="1" as="geometry">
            <mxPoint as="offset" />
          </mxGeometry>
        </mxCell>
        <mxCell id="IVsWJX17wTfRQNtMENxd-50" style="edgeStyle=orthogonalEdgeStyle;rounded=0;orthogonalLoop=1;jettySize=auto;html=1;" parent="1" source="IVsWJX17wTfRQNtMENxd-42" target="IVsWJX17wTfRQNtMENxd-22" edge="1">
          <mxGeometry relative="1" as="geometry">
            <mxPoint x="534.05" y="380" as="targetPoint" />
            <Array as="points">
              <mxPoint x="599" y="340" />
              <mxPoint x="598" y="340" />
              <mxPoint x="598" y="370" />
            </Array>
          </mxGeometry>
        </mxCell>
        <mxCell id="IVsWJX17wTfRQNtMENxd-51" value="LAN" style="edgeLabel;html=1;align=center;verticalAlign=middle;resizable=0;points=[];" parent="IVsWJX17wTfRQNtMENxd-50" vertex="1" connectable="0">
          <mxGeometry x="-0.6497" relative="1" as="geometry">
            <mxPoint as="offset" />
          </mxGeometry>
        </mxCell>
        <mxCell id="IVsWJX17wTfRQNtMENxd-60" style="edgeStyle=orthogonalEdgeStyle;rounded=0;orthogonalLoop=1;jettySize=auto;html=1;" parent="1" source="IVsWJX17wTfRQNtMENxd-42" target="IVsWJX17wTfRQNtMENxd-22" edge="1">
          <mxGeometry relative="1" as="geometry">
            <mxPoint x="526.05" y="350" as="targetPoint" />
            <Array as="points">
              <mxPoint x="490" y="320" />
            </Array>
          </mxGeometry>
        </mxCell>
        <mxCell id="IVsWJX17wTfRQNtMENxd-61" value="controlls" style="edgeLabel;html=1;align=center;verticalAlign=middle;resizable=0;points=[];" parent="IVsWJX17wTfRQNtMENxd-60" vertex="1" connectable="0">
          <mxGeometry x="0.0151" y="1" relative="1" as="geometry">
            <mxPoint x="6" y="9" as="offset" />
          </mxGeometry>
        </mxCell>
        <mxCell id="IVsWJX17wTfRQNtMENxd-42" value="Operator Client" style="shape=umlFrame;whiteSpace=wrap;html=1;pointerEvents=0;recursiveResize=0;container=1;collapsible=0;width=102;height=25;" parent="1" vertex="1">
          <mxGeometry x="544.4799999999999" y="255" width="108.14" height="80" as="geometry" />
        </mxCell>
        <mxCell id="IVsWJX17wTfRQNtMENxd-74" value="" style="points=[[0.13,0.02,0],[0.5,0,0],[0.87,0.02,0],[0.885,0.4,0],[0.985,0.985,0],[0.5,1,0],[0.015,0.985,0],[0.115,0.4,0]];verticalLabelPosition=bottom;sketch=0;html=1;verticalAlign=top;aspect=fixed;align=center;pointerEvents=1;shape=mxgraph.cisco19.laptop;fillColor=#005073;strokeColor=none;" parent="1" vertex="1">
          <mxGeometry x="572.26" y="150" width="52.57" height="36.8" as="geometry" />
        </mxCell>
      </root>
    </mxGraphModel>
  </diagram>
</mxfile>
